<svg width="109" height="70" viewBox="0 0 109 70" fill="none" xmlns="http://www.w3.org/2000/svg">
<path d="M30.9453 39.578L26.239 26.6828L21.4096 39.578H30.9453ZM31.5144 41.3322H20.779L18.9026 46.3641C18.4412 47.6105 18.2105 48.5338 18.2105 49.1493C18.2105 49.6417 18.4104 50.0572 18.8103 50.4265C19.2102 50.7958 20.0869 51.042 21.4096 51.1498V52.0269H12.689V51.1498C13.8425 50.9189 14.5961 50.6112 14.9345 50.2265C15.6266 49.4725 16.3956 47.9491 17.2415 45.6409L26.9926 19.3735H27.7001L37.3435 45.9332C38.1279 48.0722 38.82 49.4571 39.466 50.088C40.0966 50.7189 40.9887 51.0882 42.1114 51.1651V52.0423H31.1761V51.1651C32.2834 51.1036 33.0217 50.8882 33.4216 50.5342C33.8061 50.1803 34.006 49.7341 34.006 49.2109C34.006 48.5184 33.7292 47.4259 33.1909 45.9332L31.5144 41.3322Z" fill="#AE485E"/>
<path d="M49.2785 49.7033C51.0165 50.1495 52.4622 50.365 53.6311 50.365C56.7995 50.365 59.4141 49.0878 61.5058 46.5334C63.5975 43.979 64.628 40.5013 64.628 36.1311C64.628 31.7147 63.5822 27.483 61.5058 24.944C59.4141 22.405 56.7379 21.1278 53.4773 21.1278C52.2469 21.1278 50.8627 21.3586 49.2939 21.8049V49.7033H49.2785ZM41.373 52.0115V51.1344H42.4189C43.5878 51.1344 44.4183 50.7035 44.9105 49.8418C45.2027 49.3186 45.3565 48.1645 45.3565 46.3641V24.9902C45.3565 23.0051 45.1566 21.7433 44.7875 21.2509C44.2492 20.5584 43.4648 20.2199 42.4189 20.2199H41.373V19.3428H52.6622C56.7995 19.3428 59.9524 19.8814 62.121 20.9739C64.2743 22.0511 66.0122 23.8668 67.3349 26.3905C68.6423 28.9141 69.3036 32.5918 69.3036 35.9003C69.3036 40.3474 68.1347 44.0559 65.7815 47.0412C63.1515 50.365 59.1373 52.0269 53.7695 52.0269H41.373V52.0115Z" fill="#AE485E"/>
<path d="M85.5606 39.578L80.8542 26.6828L76.0248 39.578H85.5606ZM86.145 41.3322H75.4096L73.5332 46.3641C73.0718 47.6105 72.8411 48.5338 72.8411 49.1493C72.8411 49.6417 73.041 50.0572 73.4409 50.4265C73.8408 50.7958 74.7175 51.042 76.0402 51.1498V52.0269H67.3042V51.1498C68.4577 50.9189 69.2114 50.6112 69.5497 50.2265C70.2418 49.4725 71.0108 47.9491 71.8568 45.6409L81.6078 19.3735H82.3307L91.9742 45.9332C92.7432 48.0722 93.4507 49.4571 94.0813 50.088C94.7118 50.7189 95.6039 51.0882 96.7267 51.1651V52.0423H85.822V51.1651C86.9294 51.1036 87.6677 50.8882 88.0522 50.5342C88.4367 50.1803 88.6366 49.7341 88.6366 49.2109C88.6366 48.5184 88.3598 47.4259 87.8215 45.9332L86.145 41.3322Z" fill="#AE485E"/>
<path d="M0.399891 49.3186L0.292229 49.3032L0.399891 47.8413L0.507553 47.8567L0.492172 48.0106C0.476792 48.1798 0.538313 48.3029 0.676736 48.3953C0.738257 48.4414 0.876679 48.4722 1.10738 48.4876L2.78383 48.6107C3.1991 48.6415 3.52209 48.703 3.73741 48.7954C3.96811 48.8877 4.15268 49.0723 4.2911 49.3186C4.4449 49.5648 4.49104 49.9033 4.47566 50.3188C4.4449 50.765 4.33724 51.1036 4.16806 51.3344C3.99887 51.5652 3.76817 51.7037 3.50671 51.796C3.32214 51.8422 2.98378 51.8576 2.47623 51.8268L0.861299 51.7191C0.599834 51.7037 0.430651 51.7191 0.35375 51.796C0.261468 51.8576 0.215327 51.9653 0.215327 52.1346L0.199947 52.2884L0.0922852 52.2731L0.215327 50.488H0.322989L0.307609 50.6419C0.292229 50.8112 0.33837 50.9343 0.446031 51.0266C0.522933 51.0882 0.661355 51.119 0.90744 51.1343L2.72231 51.2574C2.87611 51.2728 3.07606 51.2728 3.276 51.2574C3.49133 51.2421 3.64513 51.1959 3.76817 51.1343C3.89121 51.0728 3.99887 50.9651 4.07578 50.8266C4.16806 50.6881 4.2142 50.5034 4.22958 50.3034C4.24496 50.0264 4.19882 49.7802 4.10654 49.5648C3.99887 49.3493 3.86045 49.1801 3.67589 49.0877C3.49133 48.9954 3.18372 48.9339 2.75307 48.9031L1.07662 48.78C0.815158 48.7646 0.645975 48.78 0.584454 48.8261C0.492172 48.9031 0.430651 49.0108 0.430651 49.1647L0.399891 49.3186Z" fill="#336178"/>
<path d="M0.89209 44.2865L1.13817 43.1785L4.73716 41.3781L2.39936 40.8703C2.15327 40.8088 1.98409 40.8088 1.90719 40.8549C1.79953 40.9165 1.738 41.0242 1.70724 41.1781L1.67648 41.3166L1.56882 41.2858L1.87643 39.8701L1.98409 39.9009L1.95333 40.0394C1.92257 40.2087 1.93795 40.3471 2.03023 40.4395C2.09175 40.501 2.23017 40.5472 2.4455 40.6087L5.8753 41.3628L5.84454 41.4705L1.98409 43.4247L4.49107 43.9787C4.73716 44.0403 4.90634 44.0403 4.98324 43.9941C5.0909 43.9325 5.15243 43.8248 5.18319 43.671L5.21395 43.5325L5.32161 43.5632L5.014 44.9789L4.90634 44.9482L4.9371 44.8097C4.98324 44.6404 4.95248 44.5019 4.8602 44.4096C4.79868 44.348 4.66026 44.3019 4.44493 44.2403L1.61496 43.6094C1.44578 43.7017 1.33812 43.7633 1.2766 43.8094C1.21508 43.8556 1.15355 43.9479 1.09203 44.0557C1.06127 44.1172 1.03051 44.1941 0.999752 44.3172L0.89209 44.2865Z" fill="#336178"/>
<path d="M7.41309 35.9616L7.52075 35.9923L6.92092 37.6696L6.81326 37.6389L6.8594 37.5004C6.92092 37.3465 6.90554 37.208 6.84402 37.1003C6.79788 37.0387 6.65945 36.9618 6.42875 36.8695L3.90639 35.9616C3.70644 35.8846 3.56802 35.8538 3.5065 35.8538C3.44498 35.8538 3.39884 35.8846 3.33732 35.9308C3.26041 35.9923 3.19889 36.0847 3.16813 36.177L3.12199 36.3155L3.01433 36.2847L3.61416 34.6074L3.72182 34.6382L3.67568 34.7767C3.61416 34.9306 3.62954 35.0691 3.69106 35.1768C3.7372 35.2537 3.87563 35.3307 4.10633 35.4076L6.62869 36.3155C6.82864 36.3924 6.96706 36.4232 7.02858 36.4232C7.0901 36.4232 7.13624 36.3924 7.19776 36.3463C7.27466 36.2847 7.32081 36.2078 7.36695 36.1154L7.41309 35.9616ZM2.29146 35.0691C2.32222 34.9767 2.38374 34.9152 2.46064 34.8844C2.53754 34.8382 2.62982 34.8382 2.72211 34.869C2.81439 34.8998 2.87591 34.9613 2.90667 35.0383C2.95281 35.1152 2.95281 35.2076 2.92205 35.2999C2.89129 35.3922 2.82977 35.4538 2.75287 35.4845C2.67596 35.5307 2.58368 35.5307 2.4914 35.4999C2.39912 35.4692 2.3376 35.4076 2.30684 35.3307C2.2607 35.2383 2.2607 35.1614 2.29146 35.0691Z" fill="#336178"/>
<path d="M7.02898 27.2061L7.13664 27.2522C7.0905 27.3907 7.0905 27.5138 7.10588 27.6061C7.15202 27.7446 7.2443 27.8985 7.38272 28.0678L9.87433 30.9607L9.82819 31.0684L5.9216 30.8222C5.72165 30.8068 5.59861 30.8068 5.53709 30.8222C5.46019 30.8376 5.38329 30.8684 5.32177 30.9299C5.26024 30.9761 5.18334 31.0531 5.12182 31.1608L5.01416 31.1146L5.78317 29.6066L5.89084 29.6527C5.81393 29.8374 5.79855 29.9605 5.81393 30.0374C5.82931 30.1144 5.87546 30.1606 5.93698 30.1913C6.02926 30.2375 6.19844 30.2683 6.42915 30.2837L9.08993 30.4529L7.3981 28.4833C7.22892 28.2832 7.10588 28.1755 7.02898 28.1293C6.98284 28.0986 6.90593 28.0986 6.84441 28.1293C6.76751 28.1601 6.69061 28.2371 6.59833 28.3448C6.59833 28.3602 6.58295 28.3602 6.56757 28.3909L6.45991 28.3448L7.02898 27.2061Z" fill="#336178"/>
<path d="M9.87399 23.1436L11.2275 24.0977L11.7504 23.3591C11.8888 23.159 11.9503 23.0205 11.9349 22.9128C11.9196 22.7743 11.8119 22.6205 11.6273 22.482L11.6889 22.3896L12.8731 23.2206L12.8116 23.3129C12.6271 23.2206 12.504 23.1744 12.4425 23.159C12.3656 23.1436 12.2887 23.159 12.1964 23.2052C12.1195 23.2514 12.0272 23.3437 11.9196 23.4822L11.3966 24.2208L12.5194 25.0056C12.6732 25.1133 12.7655 25.1749 12.8116 25.1749C12.8578 25.1902 12.8885 25.1749 12.9347 25.1595C12.9808 25.1441 13.0269 25.0825 13.1038 24.9902L13.5037 24.4208C13.6422 24.2362 13.7191 24.0823 13.7652 23.9746C13.796 23.8669 13.8113 23.7438 13.7806 23.6053C13.7498 23.436 13.6729 23.2052 13.5345 22.959L13.6114 22.8667L14.2574 23.7592L12.4117 26.3751L12.3195 26.3136L12.4117 26.1905C12.4733 26.1135 12.504 26.0212 12.5194 25.9289C12.5348 25.8519 12.5194 25.7904 12.4733 25.7288C12.4271 25.6673 12.3348 25.5903 12.1657 25.4672L9.95089 23.913C9.73557 23.7592 9.58177 23.6822 9.50486 23.6976C9.3972 23.713 9.28954 23.7899 9.19726 23.9284L9.10498 24.0515L9.0127 23.99L10.8583 21.374L11.6273 21.8664L11.5658 21.9588C11.3659 21.8664 11.2121 21.8203 11.1198 21.8203C11.0275 21.8203 10.9198 21.8357 10.8276 21.8972C10.7507 21.9434 10.6584 22.0511 10.5353 22.2204L9.87399 23.1436Z" fill="#336178"/>
<path d="M15.7648 18.6195C15.7956 18.5887 15.8109 18.5733 15.8417 18.5425C15.8571 18.5272 15.8725 18.5118 15.8878 18.4964C16.1647 18.204 16.3031 17.927 16.3185 17.6654C16.3339 17.4038 16.2416 17.173 16.0417 17.0037C15.8571 16.8191 15.6418 16.7421 15.4111 16.7421C15.1804 16.7421 14.9804 16.8499 14.7958 17.0499C14.7189 17.1422 14.6267 17.2653 14.5036 17.4346L15.7648 18.6195ZM19.3484 17.927L18.5948 18.7426L16.2108 18.4348C16.1493 18.5118 16.0878 18.5733 16.0417 18.6195C16.0263 18.6349 16.0109 18.6656 15.9801 18.681C15.9647 18.6964 15.934 18.7272 15.9186 18.7426L16.7953 19.5735C16.9798 19.7582 17.1183 19.8505 17.2106 19.8505C17.3336 19.8505 17.4413 19.8044 17.5489 19.6813L17.6566 19.5582L17.7335 19.6351L16.5184 20.9277L16.4415 20.8507L16.5492 20.743C16.6722 20.6199 16.7184 20.4814 16.6876 20.3583C16.6722 20.2814 16.58 20.1583 16.3954 20.0044L14.4421 18.1732C14.2575 17.9886 14.1191 17.9116 14.0268 17.8962C13.9038 17.8962 13.7961 17.9424 13.6885 18.0655L13.5808 18.1732L13.5039 18.0963L14.5344 16.9884C14.842 16.6652 15.0881 16.4498 15.2726 16.3421C15.4572 16.2343 15.6725 16.1882 15.9032 16.2036C16.1339 16.219 16.3339 16.2959 16.5031 16.4652C16.6876 16.6344 16.7953 16.8499 16.8107 17.0961C16.8414 17.3423 16.7491 17.6193 16.5646 17.927L18.0257 18.1117C18.3641 18.1578 18.6102 18.1578 18.764 18.1117C18.9178 18.0655 19.0869 17.9732 19.2715 17.8193L19.3484 17.927Z" fill="#336178"/>
<path d="M21.0711 10.833L21.9786 11.9563L21.8863 12.0333C21.6863 11.8486 21.4864 11.7101 21.3172 11.6486C21.148 11.587 20.9481 11.5716 20.7635 11.6024C20.5636 11.6332 20.3944 11.7101 20.256 11.8332C20.0868 11.9717 19.9945 12.1256 19.9638 12.3103C19.933 12.4949 19.9791 12.6642 20.0868 12.7873C20.1637 12.8796 20.2714 12.9412 20.4098 12.9719C20.6097 13.0181 20.9635 12.9873 21.5018 12.8796C21.9324 12.8027 22.24 12.7565 22.4246 12.7565C22.6092 12.7565 22.7783 12.7873 22.9321 12.8488C23.0859 12.9104 23.209 13.0181 23.3167 13.1412C23.5166 13.3874 23.5935 13.6798 23.5474 14.0029C23.5012 14.3261 23.332 14.6185 23.0244 14.8647C22.9321 14.9416 22.8399 15.0032 22.7476 15.0647C22.6861 15.0955 22.563 15.157 22.3785 15.2186C22.1785 15.2955 22.0708 15.3417 22.0247 15.3879C21.9786 15.4186 21.9632 15.4648 21.9632 15.4956C21.9632 15.5417 21.9786 15.6033 22.0247 15.6802L21.9324 15.7572L21.0404 14.6492L21.1327 14.5723C21.3634 14.7723 21.5633 14.8954 21.7171 14.957C21.8863 15.0185 22.0708 15.0185 22.2708 14.9878C22.4707 14.9416 22.6707 14.8647 22.8399 14.7108C23.0398 14.5569 23.1475 14.3722 23.1782 14.1722C23.209 13.9722 23.1628 13.8029 23.0552 13.6644C22.9937 13.5875 22.9014 13.5259 22.7937 13.4797C22.6861 13.4336 22.5476 13.4182 22.4092 13.4182C22.3016 13.4182 22.0555 13.4644 21.6556 13.5259C21.2557 13.6028 20.9635 13.6336 20.7635 13.6336C20.579 13.6336 20.3944 13.6028 20.256 13.5413C20.1022 13.4797 19.9791 13.3874 19.8715 13.2489C19.6869 13.0181 19.61 12.7411 19.6561 12.4334C19.7023 12.1256 19.8561 11.8486 20.1329 11.6332C20.3021 11.4947 20.5174 11.387 20.7789 11.31C20.9019 11.2793 20.9789 11.2485 21.0096 11.2177C21.0558 11.1869 21.0711 11.1408 21.0865 11.0946C21.0865 11.0484 21.0711 10.9869 21.025 10.8946L21.0711 10.833Z" fill="#336178"/>
<path d="M24.7776 7.0324C24.8545 6.98624 24.9468 6.97085 25.0237 6.98624C25.1159 7.00163 25.1775 7.04779 25.239 7.14012C25.2851 7.21706 25.3005 7.294 25.2851 7.38633C25.2697 7.47866 25.2236 7.54021 25.1313 7.60176C25.0544 7.64792 24.9621 7.66331 24.8852 7.64792C24.793 7.63254 24.7314 7.58637 24.6699 7.49404C24.6238 7.4171 24.6084 7.34016 24.6238 7.24784C24.6545 7.15551 24.7007 7.07857 24.7776 7.0324ZM28.2843 10.8794L28.3458 10.9717L26.8385 11.9258L26.777 11.8335L26.9001 11.7565C27.0385 11.6642 27.1308 11.5565 27.1308 11.4334C27.1308 11.3564 27.0692 11.2026 26.9462 11.0025L25.5005 8.74047C25.3928 8.55582 25.3005 8.4481 25.239 8.41732C25.1928 8.38655 25.1313 8.37116 25.0698 8.37116C24.9621 8.37116 24.8699 8.40194 24.793 8.46349L24.6699 8.54043L24.6084 8.4481L26.1157 7.49404L26.1772 7.58637L26.0541 7.66331C25.9157 7.75564 25.8388 7.86336 25.8234 7.98646C25.8081 8.0634 25.885 8.21728 26.008 8.43271L27.4537 10.6947C27.5614 10.8794 27.6537 10.9871 27.7152 11.0179C27.7614 11.0487 27.8229 11.0641 27.8998 11.0641C28.0074 11.0641 28.0843 11.0333 28.1766 10.9717L28.2843 10.8794Z" fill="#336178"/>
<path d="M32.5602 4.0625L33.0216 4.92423L32.9139 4.97039C32.8216 4.8319 32.7447 4.72418 32.6678 4.67802C32.5602 4.60108 32.4525 4.55492 32.3295 4.55492C32.2064 4.55492 32.068 4.58569 31.9142 4.66263L31.3913 4.90884L32.7601 7.77101C32.8678 8.00183 32.9601 8.14032 33.037 8.1711C33.1446 8.21726 33.2677 8.20187 33.4215 8.12493L33.5445 8.06338L33.5907 8.1711L32.0065 8.9405L31.9604 8.83278L32.0988 8.77123C32.2526 8.69429 32.3449 8.58657 32.3602 8.46347C32.3756 8.38653 32.3295 8.24803 32.2218 8.0326L30.8684 5.17044L30.4223 5.38587C30.2531 5.46281 30.1301 5.53975 30.0686 5.6013C29.9917 5.67824 29.9455 5.78596 29.9148 5.92445C29.8994 6.06294 29.9148 6.21682 29.9917 6.38609L29.884 6.43225L29.4995 5.53975L32.5602 4.0625Z" fill="#336178"/>
<path d="M37.3894 2.47767L37.8969 4.04725L38.7736 3.77026C39.0043 3.69333 39.1427 3.61638 39.1889 3.52406C39.2658 3.40095 39.2658 3.23168 39.2042 3.00086L39.3119 2.97009L39.7579 4.33962L39.6503 4.3704C39.558 4.18574 39.4965 4.07802 39.4503 4.03186C39.3888 3.97031 39.3119 3.93953 39.2196 3.92414C39.1273 3.90876 39.0043 3.92414 38.8351 3.9857L37.9584 4.26268L38.3737 5.57066C38.4352 5.73993 38.466 5.84764 38.4967 5.87842C38.5275 5.9092 38.5583 5.93997 38.6044 5.93997C38.6505 5.95536 38.7274 5.93997 38.8351 5.9092L39.5118 5.69376C39.7425 5.61682 39.8963 5.55527 39.9886 5.49372C40.0809 5.43217 40.1578 5.33984 40.2193 5.21674C40.2962 5.06286 40.3731 4.83204 40.4193 4.55505L40.5423 4.52428L40.5116 5.63221L37.4509 6.61704L37.4201 6.50933L37.5585 6.46316C37.6508 6.43239 37.7277 6.38622 37.8046 6.30928C37.8508 6.26312 37.8815 6.20157 37.8815 6.12463C37.8815 6.06308 37.8508 5.92458 37.7892 5.72454L36.9587 3.15474C36.8818 2.90854 36.8049 2.75466 36.728 2.70849C36.6357 2.64694 36.4973 2.64694 36.3435 2.70849L36.2051 2.75466L36.1743 2.64694L39.235 1.66211L39.558 2.50845L39.4503 2.53923C39.3427 2.33918 39.2504 2.21608 39.1735 2.15453C39.0966 2.09297 39.0043 2.0622 38.8966 2.04681C38.8043 2.04681 38.6659 2.07759 38.466 2.13914L37.3894 2.47767Z" fill="#336178"/>
<path d="M46.756 0L46.9713 0.954056L46.8636 0.969444C46.8175 0.800176 46.756 0.69246 46.7098 0.630908C46.6329 0.523192 46.5253 0.446252 46.4176 0.415476C46.2946 0.3847 46.1561 0.369312 45.987 0.400088L45.4025 0.507804L45.9562 3.63157C46.0023 3.87778 46.0485 4.03166 46.1254 4.09321C46.2177 4.17015 46.3407 4.18554 46.4945 4.15476L46.6329 4.12398L46.6483 4.2317L44.9103 4.53946L44.895 4.43174L45.0334 4.40097C45.2026 4.37019 45.3256 4.29325 45.3717 4.18554C45.4025 4.1086 45.4025 3.9701 45.3564 3.73928L44.8027 0.61552L44.3105 0.707848C44.1259 0.738624 43.9875 0.784788 43.9106 0.815564C43.8183 0.877116 43.7414 0.954056 43.6799 1.07716C43.6184 1.20026 43.603 1.35414 43.6184 1.5388L43.5107 1.55419L43.3877 0.584744L46.756 0Z" fill="#336178"/>
<path d="M68.5806 1.43104L68.6114 1.32332L70.0417 1.67724L70.011 1.78496L69.8572 1.75418C69.7034 1.70802 69.565 1.75418 69.4419 1.8619C69.3804 1.90806 69.3343 2.04656 69.2727 2.27738L68.8575 3.9085C68.7498 4.30859 68.6421 4.61635 68.5037 4.81639C68.3653 5.01644 68.1654 5.17032 67.8885 5.27803C67.6117 5.38575 67.2733 5.37036 66.8734 5.27803C66.4274 5.17032 66.1198 5.00105 65.9352 4.80101C65.7507 4.58557 65.643 4.33937 65.6122 4.06238C65.5968 3.87773 65.643 3.53919 65.766 3.04678L66.1659 1.4772C66.2274 1.23099 66.2274 1.06172 66.1813 0.969395C66.1352 0.877067 66.0275 0.815515 65.8737 0.769351L65.7199 0.738575L65.7507 0.630859L67.4886 1.07711L67.4579 1.18483L67.3041 1.13866C67.1349 1.0925 67.0118 1.12328 66.9042 1.20022C66.8427 1.26177 66.7811 1.40026 66.7196 1.63108L66.2736 3.38531C66.2274 3.53919 66.1967 3.72385 66.1813 3.93928C66.1659 4.15471 66.1659 4.32398 66.2121 4.44708C66.2582 4.58557 66.3505 4.69329 66.4735 4.80101C66.5966 4.90872 66.7657 4.98566 66.9657 5.04721C67.2272 5.10877 67.4732 5.10877 67.7193 5.04721C67.95 4.98566 68.1346 4.87795 68.2576 4.70868C68.3807 4.5548 68.4883 4.24704 68.596 3.83156L69.0113 2.20044C69.0728 1.95423 69.0882 1.78496 69.042 1.70802C68.9805 1.6003 68.8882 1.52336 68.7344 1.49259L68.5806 1.43104Z" fill="#336178"/>
<path d="M73.8405 2.93896L74.871 3.38522L75.9784 7.2476L76.932 5.04712C77.0396 4.8163 77.0704 4.64703 77.0396 4.57009C77.0089 4.46238 76.9166 4.37005 76.7628 4.3085L76.6244 4.24694L76.6705 4.13923L78.0086 4.70858L77.9624 4.8163L77.824 4.75475C77.6548 4.67781 77.5318 4.67781 77.4241 4.75475C77.3626 4.80091 77.2703 4.92402 77.1934 5.13945L75.8092 8.35554L75.7015 8.30938L74.5019 4.15462L73.4868 6.50898C73.3791 6.7398 73.3484 6.89368 73.3791 6.98601C73.4099 7.09372 73.5022 7.18605 73.656 7.2476L73.7944 7.30916L73.7482 7.41687L72.4102 6.84752L72.4563 6.7398L72.5947 6.80135C72.7639 6.87829 72.8869 6.87829 73.01 6.80135C73.0715 6.75519 73.1638 6.63208 73.2407 6.41665L74.3788 3.75453C74.3173 3.58526 74.2712 3.46216 74.2404 3.38522C74.1943 3.32366 74.1327 3.24672 74.0405 3.1544C73.9943 3.10823 73.9174 3.07746 73.8098 3.0159L73.8405 2.93896Z" fill="#336178"/>
<path d="M81.131 11.0948L81.0695 11.1871L79.5469 10.2793L79.6084 10.1869L79.7314 10.2639C79.8852 10.3562 80.0083 10.3716 80.1313 10.3254C80.2082 10.2946 80.3159 10.1715 80.4389 9.9561L81.8232 7.6479C81.9308 7.46325 81.9923 7.34014 82.0077 7.2632C82.0231 7.20165 82.0077 7.15549 81.9616 7.07855C81.9154 6.98622 81.8385 6.92467 81.7616 6.86312L81.6386 6.78618L81.7001 6.69385L83.2228 7.60174L83.1612 7.69407L83.0382 7.61713C82.8998 7.5248 82.7613 7.50941 82.6383 7.55558C82.5614 7.58635 82.4537 7.70946 82.3307 7.92489L80.9465 10.2331C80.8388 10.4177 80.7773 10.5408 80.7619 10.6178C80.7465 10.6793 80.7619 10.7255 80.8081 10.8024C80.8542 10.8948 80.9311 10.9563 81.008 11.0025L81.131 11.0948Z" fill="#336178"/>
<path d="M90.1131 12.6487L90.0362 12.7411C89.8978 12.6641 89.7901 12.6333 89.6825 12.6487C89.5287 12.6641 89.3595 12.7257 89.1749 12.8334L85.8374 14.6953L85.7451 14.6184L86.7602 10.8483C86.8064 10.6483 86.8371 10.5252 86.8371 10.479C86.8371 10.4021 86.8217 10.3251 86.7756 10.2482C86.7448 10.1713 86.6679 10.0943 86.5757 10.002L86.6526 9.90967L87.9753 10.9714L87.8984 11.0638C87.7292 10.9561 87.6215 10.9099 87.5446 10.9099C87.4677 10.9099 87.4062 10.9407 87.36 11.0022C87.2985 11.0792 87.237 11.233 87.1755 11.4639L86.4834 14.0337L88.7443 12.7564C88.975 12.6333 89.1134 12.5256 89.1595 12.4641C89.1903 12.4179 89.2057 12.3564 89.1903 12.2794C89.1749 12.2025 89.1288 12.1102 89.0211 12.0024C89.0211 11.987 89.0057 11.987 88.9904 11.9563L89.0673 11.8639L90.1131 12.6487Z" fill="#336178"/>
<path d="M93.8043 16.5268L92.6046 17.6502L93.2352 18.3118C93.4044 18.4811 93.5275 18.5734 93.6351 18.5888C93.7735 18.6042 93.9427 18.5273 94.1273 18.3734L94.2042 18.4503L93.1429 19.4352L93.066 19.3582C93.1891 19.2043 93.266 19.0966 93.2968 19.0351C93.3275 18.9581 93.3275 18.8812 93.2968 18.7889C93.266 18.6965 93.1891 18.5888 93.0814 18.4657L92.4508 17.804L91.4511 18.7427C91.3127 18.8658 91.2358 18.9428 91.2204 18.9889C91.205 19.0351 91.205 19.0659 91.205 19.112C91.2204 19.1582 91.2666 19.2197 91.3435 19.3121L91.8202 19.8353C91.9741 20.0045 92.1125 20.1276 92.2048 20.1738C92.297 20.2353 92.4201 20.2661 92.5585 20.2661C92.7431 20.2661 92.9738 20.2353 93.2506 20.1584L93.3275 20.2507L92.3124 20.697L90.1284 18.3426L90.2053 18.2657L90.313 18.3734C90.3745 18.4503 90.4668 18.4965 90.5591 18.5273C90.6206 18.5581 90.6975 18.5581 90.759 18.5273C90.8205 18.4965 90.9282 18.4196 91.082 18.2811L93.066 16.4345C93.266 16.2499 93.3583 16.1268 93.3737 16.0498C93.389 15.9421 93.3275 15.819 93.2198 15.6959L93.1122 15.5882L93.1891 15.5112L95.3731 17.8502L94.7425 18.4965L94.6656 18.4042C94.7886 18.2195 94.8809 18.081 94.8963 17.9887C94.9271 17.8964 94.9117 17.7887 94.8809 17.6963C94.8502 17.6194 94.7579 17.4963 94.6195 17.3424L93.8043 16.5268Z" fill="#336178"/>
<path d="M97.2648 23.5129C97.2802 23.5437 97.3109 23.5745 97.3263 23.5899C97.3417 23.6206 97.3571 23.636 97.3725 23.6514C97.6032 23.9746 97.8339 24.1746 98.0953 24.2362C98.3568 24.2977 98.5875 24.2669 98.8028 24.1131C99.0182 23.9592 99.1412 23.7745 99.1873 23.5591C99.2335 23.3283 99.172 23.1128 99.0181 22.882C98.9566 22.7897 98.849 22.6666 98.6952 22.5127L97.2648 23.5129ZM97.1725 27.1599L96.5419 26.252L97.3417 23.99C97.2802 23.913 97.234 23.8361 97.1879 23.7899C97.1725 23.7745 97.1571 23.7437 97.1418 23.713C97.1264 23.6822 97.111 23.6668 97.0956 23.636L96.0959 24.3285C95.8806 24.4824 95.7575 24.5901 95.7422 24.6824C95.7114 24.7901 95.7421 24.9132 95.8344 25.0517L95.9267 25.1902L95.8344 25.2518L94.8193 23.7899L94.9116 23.7284L95.0039 23.8515C95.0962 23.99 95.2192 24.0669 95.3576 24.0669C95.4345 24.0669 95.573 24.0053 95.7729 23.8669L97.9877 22.3434C98.203 22.1896 98.326 22.0818 98.3414 21.9895C98.3722 21.8664 98.3414 21.7433 98.2491 21.6202L98.1569 21.4971L98.2491 21.4355L99.1104 22.682C99.3565 23.0513 99.5257 23.3283 99.5872 23.5437C99.6487 23.7591 99.6487 23.9592 99.6026 24.19C99.5411 24.4054 99.418 24.5901 99.2181 24.7132C99.0028 24.8517 98.7721 24.9132 98.526 24.8825C98.2799 24.8517 98.0184 24.7132 97.757 24.467L97.2648 25.8519C97.1571 26.175 97.0956 26.4059 97.0956 26.5751C97.0956 26.7444 97.1571 26.9291 97.2648 27.1291L97.1725 27.1599Z" fill="#336178"/>
<path d="M103.924 30.7297L102.632 31.3607L102.586 31.2529C102.817 31.0991 102.986 30.9452 103.094 30.7759C103.201 30.622 103.248 30.4374 103.263 30.2373C103.278 30.0373 103.232 29.8526 103.155 29.6834C103.063 29.4987 102.925 29.3602 102.74 29.2987C102.556 29.2371 102.402 29.2371 102.248 29.3141C102.14 29.3756 102.048 29.4679 102.002 29.591C101.925 29.7757 101.879 30.1296 101.848 30.6682C101.833 31.1144 101.802 31.4222 101.771 31.5915C101.74 31.7607 101.663 31.93 101.556 32.0531C101.448 32.1916 101.325 32.2993 101.187 32.3609C100.91 32.4994 100.602 32.5148 100.295 32.3917C99.987 32.2685 99.7409 32.0377 99.5718 31.6992C99.5256 31.5915 99.4795 31.4838 99.4487 31.376C99.4333 31.3145 99.4026 31.176 99.3718 30.976C99.341 30.7759 99.3103 30.6374 99.2949 30.5913C99.2795 30.5451 99.2334 30.5143 99.2026 30.4989C99.1565 30.4835 99.095 30.4989 99.0027 30.5297L98.9565 30.422L100.233 29.7911L100.279 29.8988C100.033 30.0835 99.864 30.2373 99.7717 30.3912C99.6794 30.5297 99.6333 30.7144 99.6179 30.9298C99.6179 31.1452 99.664 31.3453 99.7563 31.5453C99.864 31.7761 100.018 31.93 100.202 31.9916C100.387 32.0685 100.571 32.0531 100.725 31.9762C100.818 31.93 100.894 31.8531 100.971 31.7607C101.033 31.6684 101.094 31.5453 101.11 31.3914C101.125 31.2991 101.156 31.0375 101.171 30.6374C101.187 30.2373 101.217 29.9296 101.264 29.7449C101.31 29.5603 101.371 29.391 101.464 29.2679C101.556 29.1294 101.679 29.0371 101.833 28.9601C102.094 28.8216 102.386 28.8216 102.679 28.9294C102.971 29.0371 103.201 29.2525 103.355 29.5756C103.448 29.7757 103.509 30.0065 103.524 30.2835C103.524 30.4066 103.54 30.4989 103.555 30.5297C103.586 30.5759 103.617 30.6066 103.663 30.622C103.709 30.6374 103.771 30.6374 103.878 30.6066L103.924 30.7297Z" fill="#336178"/>
<path d="M102.402 38.0854L102.294 38.1162L101.709 36.4389L101.817 36.4081L101.863 36.5466C101.925 36.7159 102.002 36.8082 102.125 36.8543C102.202 36.8851 102.355 36.8543 102.602 36.762L105.139 35.8695C105.339 35.7926 105.462 35.7464 105.524 35.7002C105.57 35.6695 105.601 35.6079 105.601 35.531C105.616 35.4233 105.616 35.3309 105.57 35.2386L105.524 35.1001L105.631 35.0693L106.216 36.7466L106.108 36.7774L106.062 36.6389C106.001 36.485 105.924 36.3773 105.801 36.3312C105.724 36.3004 105.57 36.3312 105.324 36.4081L102.786 37.3006C102.586 37.3775 102.463 37.4237 102.402 37.4699C102.355 37.5006 102.34 37.5622 102.325 37.6391C102.309 37.7315 102.309 37.8392 102.34 37.9315L102.402 38.0854Z" fill="#336178"/>
<path d="M108.139 44.1944L107.201 44.4406L107.17 44.3329C107.339 44.2714 107.447 44.2252 107.508 44.1636C107.616 44.0713 107.677 43.979 107.708 43.8559C107.739 43.7482 107.739 43.5943 107.708 43.425L107.585 42.8557L104.478 43.5173C104.232 43.5635 104.078 43.6251 104.032 43.702C103.971 43.7943 103.94 43.9174 103.986 44.0867L104.017 44.2252L103.909 44.256L103.54 42.5325L103.648 42.5017L103.678 42.6402C103.709 42.8095 103.786 42.9172 103.909 42.9788C103.986 43.0095 104.14 42.9941 104.355 42.948L107.462 42.2863L107.354 41.7939C107.308 41.6092 107.277 41.4707 107.231 41.3938C107.17 41.3015 107.078 41.2245 106.954 41.1784C106.831 41.1322 106.678 41.1168 106.493 41.1322L106.462 41.0245L107.431 40.8706L108.139 44.1944Z" fill="#336178"/>
<path d="M108.908 51.319L109 52.7654H108.892V52.6885C108.892 52.6423 108.861 52.5654 108.815 52.4577C108.769 52.3654 108.692 52.273 108.6 52.1961C108.508 52.1192 108.354 52.0268 108.154 51.9191L106.524 51.0112L105.478 51.0728C105.216 51.0882 105.062 51.1189 105.001 51.1805C104.924 51.2574 104.878 51.3805 104.893 51.5498L104.909 51.6883H104.801L104.693 49.9341H104.801L104.816 50.0879C104.832 50.2572 104.893 50.3803 105.001 50.4572C105.062 50.5034 105.216 50.5188 105.447 50.5034L106.431 50.4419L108.108 49.1954C108.308 49.0416 108.431 48.9492 108.477 48.9031C108.523 48.8569 108.585 48.7492 108.646 48.5953C108.661 48.5491 108.677 48.4876 108.661 48.4106H108.769L108.877 50.1803H108.769V50.0879C108.769 49.9956 108.738 49.9033 108.692 49.8263C108.646 49.7494 108.569 49.7186 108.477 49.7186C108.4 49.7186 108.277 49.7956 108.092 49.9341L106.8 50.8727L108.123 51.6113C108.323 51.7191 108.462 51.7806 108.569 51.7652C108.631 51.7652 108.677 51.7498 108.723 51.7191C108.769 51.6883 108.8 51.6421 108.815 51.5806C108.831 51.519 108.846 51.4421 108.846 51.3344L108.908 51.319Z" fill="#336178"/>
<path d="M108.908 56.0894H0V58.9977H108.908V56.0894Z" fill="#336178"/>
<path d="M103.509 59.8286H5.41406V62.7369H103.509V59.8286Z" fill="#336178"/>
<path d="M98.5875 63.4756H10.3354V66.3839H98.5875V63.4756Z" fill="#336178"/>
<path d="M93.435 67.0918H15.4878V70.0001H93.435V67.0918Z" fill="#336178"/>
<path d="M57.1994 2.40642V2.86806H56.738L56.415 3.19121L56.092 2.86806H55.6306V2.40642L55.3076 2.08328L55.6306 1.76013V1.29849H56.092L56.415 0.97534L56.738 1.29849H57.1994V1.76013L57.5224 2.08328L57.1994 2.40642ZM57.5685 1.60625V0.929176H56.8918L56.415 0.452148L55.9382 0.929176H55.2615V1.60625L54.7847 2.08328L55.2615 2.5603V3.23738H55.9382L56.415 3.7144L56.8918 3.23738H57.5685V2.5603L58.0453 2.08328L57.5685 1.60625Z" fill="#336178"/>
</svg>